<svg width="24" height="24" viewBox="0 0 24 24" fill="none" xmlns="http://www.w3.org/2000/svg">
<path d="M7.68043 1.43994C4.24002 1.43994 1.44043 4.23953 1.44043 7.67994V16.3199C1.44043 19.7603 4.24002 22.5599 7.68043 22.5599H16.3204C19.7608 22.5599 22.5604 19.7603 22.5604 16.3199V7.67994C22.5604 4.23953 19.7608 1.43994 16.3204 1.43994H7.68043ZM7.68043 2.39994H16.3204C19.2419 2.39994 21.6004 4.75843 21.6004 7.67994V16.3199C21.6004 19.2415 19.2419 21.5999 16.3204 21.5999H7.68043C4.75892 21.5999 2.40043 19.2415 2.40043 16.3199V7.67994C2.40043 4.75843 4.75892 2.39994 7.68043 2.39994ZM17.7604 5.27994C17.5058 5.27994 17.2616 5.38108 17.0816 5.56112C16.9016 5.74115 16.8004 5.98533 16.8004 6.23994C16.8004 6.49455 16.9016 6.73873 17.0816 6.91876C17.2616 7.0988 17.5058 7.19994 17.7604 7.19994C18.015 7.19994 18.2592 7.0988 18.4393 6.91876C18.6193 6.73873 18.7204 6.49455 18.7204 6.23994C18.7204 5.98533 18.6193 5.74115 18.4393 5.56112C18.2592 5.38108 18.015 5.27994 17.7604 5.27994ZM12.0004 6.71994C9.09005 6.71994 6.72043 9.08956 6.72043 11.9999C6.72043 14.9103 9.09005 17.2799 12.0004 17.2799C14.9108 17.2799 17.2804 14.9103 17.2804 11.9999C17.2804 9.08956 14.9108 6.71994 12.0004 6.71994ZM12.0004 7.67994C14.392 7.67994 16.3204 9.60839 16.3204 11.9999C16.3204 14.3915 14.392 16.3199 12.0004 16.3199C9.60887 16.3199 7.68043 14.3915 7.68043 11.9999C7.68043 9.60839 9.60887 7.67994 12.0004 7.67994Z" fill="#EDEDED"/>
</svg>
