<svg width="24" height="24" viewBox="0 0 24 24" fill="none" xmlns="http://www.w3.org/2000/svg">
<path d="M21.3008 2.87348C21.067 2.88374 20.8394 2.9488 20.6342 3.03098C20.4311 3.11261 19.2617 3.61173 17.5348 4.35005C15.808 5.08836 13.5632 6.04981 11.338 7.00317C6.88753 8.9099 2.51421 10.786 2.51421 10.786L2.54609 10.7738C2.54609 10.7738 2.28214 10.862 2.01452 11.0485C1.88072 11.1417 1.73677 11.2621 1.6189 11.4375C1.50103 11.613 1.41486 11.8617 1.44734 12.1247C1.5614 13.0486 2.5189 13.3107 2.5189 13.3107L2.52265 13.3125L6.79577 14.775C6.90472 15.1385 8.09183 19.1006 8.35296 19.9397C8.49718 20.4036 8.63216 20.6712 8.77296 20.8538C8.84342 20.9451 8.91726 21.0158 8.9989 21.0675C9.03134 21.0881 9.06545 21.1035 9.09921 21.1172H9.10109C9.10523 21.1191 9.10914 21.1192 9.11327 21.121L9.10202 21.1182C9.10987 21.1213 9.11761 21.1267 9.12546 21.1294C9.1407 21.1348 9.15003 21.1346 9.16952 21.1388C9.65891 21.3097 10.0639 20.9925 10.0639 20.9925L10.0808 20.9794L12.7058 18.5447L16.9658 21.8663L17.0192 21.8907C17.7649 22.2217 18.4392 22.037 18.8126 21.7332C19.1861 21.4293 19.333 21.0375 19.333 21.0375L19.3489 20.9963L22.4792 4.68098C22.5593 4.31597 22.5707 4.00046 22.4951 3.71536C22.4196 3.43025 22.2361 3.18241 22.0058 3.04504C21.7755 2.90768 21.5346 2.86323 21.3008 2.87348ZM21.3261 3.84942C21.421 3.84502 21.4914 3.85588 21.5136 3.86911C21.5358 3.88234 21.5457 3.8806 21.567 3.96098C21.5883 4.04137 21.5999 4.21068 21.5417 4.47567L21.5398 4.4813L18.4273 20.7019C18.42 20.7182 18.3551 20.8683 18.207 20.9888C18.056 21.1117 17.8879 21.2077 17.442 21.0207L12.7836 17.3879L12.6523 17.2847L12.6495 17.2875L11.2564 16.2422L19.0855 7.0313C19.1456 6.9607 19.184 6.87419 19.1961 6.78223C19.2081 6.69026 19.1932 6.59678 19.1533 6.51309C19.1133 6.42939 19.05 6.35906 18.9709 6.3106C18.8918 6.26215 18.8004 6.23764 18.7076 6.24005C18.617 6.2424 18.529 6.27035 18.4536 6.32067L7.12484 13.8732L2.84515 12.4079C2.84515 12.4079 2.42018 12.1714 2.39984 12.0066C2.39871 11.9975 2.39369 12.0057 2.41577 11.9729C2.43786 11.94 2.49337 11.8845 2.56296 11.836C2.70215 11.739 2.86109 11.6804 2.86109 11.6804L2.87702 11.6747L2.89296 11.6682C2.89296 11.6682 7.26651 9.79199 11.7167 7.88536C13.9418 6.93204 16.1862 5.9713 17.9126 5.23317C19.6386 4.49523 20.8858 3.96406 20.9914 3.92161C21.1116 3.87347 21.2311 3.85382 21.3261 3.84942ZM16.1342 9.02067L10.197 16.006L10.1942 16.0088C10.1849 16.02 10.1762 16.0315 10.168 16.0435C10.1585 16.0565 10.1498 16.0699 10.1417 16.0838C10.1084 16.1404 10.087 16.2033 10.0789 16.2685C10.0789 16.2697 10.0789 16.271 10.0789 16.2722L9.30546 19.7504C9.2926 19.7128 9.2836 19.699 9.26984 19.6547V19.6538C9.02418 18.8645 7.90417 15.1278 7.74921 14.611L16.1342 9.02067ZM10.8673 17.1507L11.9342 17.9513L10.3667 19.4044L10.8673 17.1507Z" fill="#EDEDED"/>
</svg>
