<svg width="24" height="24" viewBox="0 0 24 24" fill="none" xmlns="http://www.w3.org/2000/svg">
<g clip-path="url(#clip0_2977_6495)">
<path d="M16.425 2.625C13.5543 2.625 11.22 4.95937 11.22 7.83C11.22 8.0025 11.2631 8.17125 11.28 8.34C7.73059 8.00062 4.59184 6.29063 2.45996 3.675C2.36059 3.54937 2.20684 3.48187 2.04559 3.49313C1.88621 3.50437 1.74371 3.59625 1.66496 3.735C1.21684 4.50563 0.959962 5.3925 0.959962 6.345C0.959962 7.49813 1.37246 8.55375 2.00996 9.42C1.88621 9.36562 1.75121 9.33562 1.63496 9.27C1.48684 9.19125 1.30871 9.195 1.16434 9.28125C1.01996 9.3675 0.931837 9.52312 0.929962 9.69V9.75C0.929962 11.5181 1.84496 13.0537 3.19496 13.995C3.17996 13.9931 3.16496 13.9987 3.14996 13.995C2.98496 13.9669 2.81809 14.025 2.70746 14.1506C2.59684 14.2762 2.56121 14.4506 2.60996 14.61C3.14621 16.2769 4.51496 17.55 6.20996 18.015C4.85996 18.8175 3.29434 19.29 1.60496 19.29C1.23934 19.29 0.888712 19.2712 0.539962 19.23C0.314962 19.2 0.0993369 19.3312 0.0243371 19.545C-0.052538 19.7587 0.0318371 19.9969 0.224962 20.115C2.39059 21.5044 4.96121 22.32 7.72496 22.32C12.2043 22.32 15.7181 20.4487 18.075 17.775C20.4318 15.1012 21.66 11.6288 21.66 8.385C21.66 8.24812 21.6487 8.115 21.645 7.98C22.5243 7.30687 23.31 6.5175 23.925 5.595C24.0468 5.41687 24.0337 5.17875 23.8931 5.01375C23.7543 4.84875 23.52 4.79813 23.325 4.89C23.0775 5.00063 22.7887 5.01187 22.53 5.1C22.8712 4.64437 23.1637 4.15313 23.34 3.6C23.4 3.41063 23.3343 3.2025 23.1787 3.07875C23.0231 2.95687 22.8056 2.94187 22.635 3.045C21.8156 3.53063 20.9081 3.87187 19.95 4.08C19.02 3.21 17.7956 2.625 16.425 2.625ZM16.425 3.585C17.6493 3.585 18.7556 4.10813 19.53 4.935C19.6462 5.055 19.8168 5.10563 19.98 5.07C20.6062 4.94625 21.2006 4.76437 21.78 4.53C21.4462 4.98 21.0337 5.36437 20.55 5.655C20.3306 5.76187 20.2275 6.015 20.3081 6.24562C20.3868 6.47437 20.6268 6.6075 20.865 6.555C21.345 6.49687 21.7725 6.30187 22.23 6.18C21.8193 6.62437 21.3693 7.02563 20.88 7.38C20.7468 7.4775 20.6737 7.635 20.685 7.8C20.6925 7.995 20.7 8.18812 20.7 8.385C20.7 11.385 19.5487 14.6419 17.355 17.13C15.1612 19.6181 11.94 21.36 7.72496 21.36C5.81059 21.36 4.00309 20.9362 2.36996 20.19C4.39496 20.0344 6.26246 19.3181 7.76996 18.135C7.92746 18.0094 7.98934 17.7994 7.92559 17.6081C7.86184 17.4169 7.68559 17.2856 7.48496 17.28C5.90246 17.2519 4.57684 16.3312 3.86996 15.03C3.89621 15.03 3.91871 15.03 3.94496 15.03C4.41934 15.03 4.88809 14.97 5.32496 14.85C5.53496 14.7881 5.67934 14.5931 5.67184 14.3737C5.66434 14.1544 5.50871 13.9669 5.29496 13.92C3.58684 13.575 2.30621 12.1838 2.00996 10.455C2.49371 10.6219 2.98871 10.7531 3.52496 10.77C3.74434 10.7831 3.94309 10.6462 4.01059 10.4381C4.07809 10.23 3.99559 10.0013 3.80996 9.885C2.66996 9.12187 1.91996 7.8225 1.91996 6.345C1.91996 5.7975 2.06246 5.295 2.24996 4.815C4.64996 7.44937 8.00996 9.19875 11.805 9.39C11.955 9.3975 12.1012 9.33562 12.1987 9.22125C12.2962 9.105 12.3337 8.95125 12.3 8.805C12.2268 8.49375 12.18 8.16375 12.18 7.83C12.18 5.47875 14.0737 3.585 16.425 3.585Z" fill="#EDEDED"/>
</g>
<defs>
<clipPath id="clip0_2977_6495">
<rect width="24" height="24" fill="white"/>
</clipPath>
</defs>
</svg>
