<svg width="24" height="24" viewBox="0 0 24 24" fill="#fff" xmlns="http://www.w3.org/2000/svg">
<g clip-path="url(#clip0_4418_8842)">
<path d="M22 22.75H5C2.93 22.75 1.25 21.07 1.25 19V2C1.25 1.59 1.59 1.25 2 1.25C2.41 1.25 2.75 1.59 2.75 2V19C2.75 20.24 3.76 21.25 5 21.25H22C22.41 21.25 22.75 21.59 22.75 22C22.75 22.41 22.41 22.75 22 22.75Z"/>
<path d="M5.00007 17.7498C4.83007 17.7498 4.65007 17.6898 4.51007 17.5698C4.20007 17.2998 4.16007 16.8298 4.43007 16.5098L9.02007 11.1498C9.52007 10.5698 10.2401 10.2198 11.0001 10.1898C11.7601 10.1698 12.5101 10.4498 13.0501 10.9898L14.0001 11.9398C14.2501 12.1898 14.5701 12.3098 14.9301 12.3098C15.2801 12.2998 15.6001 12.1398 15.8301 11.8698L20.4201 6.50982C20.6901 6.19982 21.1601 6.15982 21.4801 6.42982C21.7901 6.69982 21.8301 7.16982 21.5601 7.48982L16.9701 12.8498C16.4701 13.4298 15.7501 13.7798 14.9901 13.8098C14.2201 13.8298 13.4801 13.5498 12.9401 13.0098L12.0001 12.0598C11.7501 11.8098 11.4201 11.6798 11.0701 11.6898C10.7201 11.6998 10.4001 11.8598 10.1701 12.1298L5.58007 17.4898C5.42007 17.6598 5.21007 17.7498 5.00007 17.7498Z"/>
</g>
<defs>
<clipPath id="clip0_4418_8842">
<rect width="24" height="24" fill="white"/>
</clipPath>
</defs>
</svg>