<svg width="24" height="24" viewBox="0 0 24 24" fill="#fff" xmlns="http://www.w3.org/2000/svg">
<g clip-path="url(#clip0_4418_7285)">
<path d="M16.3799 22.7493H3.23993C2.28993 22.7493 1.40993 22.3093 0.839932 21.5393C0.259932 20.7593 0.0899403 19.7792 0.37994 18.8492L4.58993 5.31921C4.96993 4.05921 6.12995 3.19922 7.44995 3.19922H19.7499C20.9599 3.19922 22.0499 3.91931 22.5099 5.03931C22.7599 5.61931 22.8099 6.27932 22.6599 6.92932L19.2899 20.4592C18.9699 21.8092 17.7699 22.7493 16.3799 22.7493ZM7.45993 4.70923C6.80993 4.70923 6.21993 5.13929 6.02993 5.76929L1.81994 19.2993C1.67994 19.7693 1.75993 20.2593 2.05993 20.6593C2.33993 21.0393 2.77994 21.2593 3.24994 21.2593H16.3899C17.08 21.2593 17.6799 20.7893 17.8399 20.1193L21.2099 6.57922C21.2899 6.24922 21.2699 5.91927 21.1399 5.62927C20.9 5.05927 20.3699 4.69922 19.7599 4.69922H7.45993V4.70923Z"/>
<path d="M20.78 22.7509H16C15.59 22.7509 15.25 22.4109 15.25 22.0009C15.25 21.5909 15.59 21.2509 16 21.2509H20.78C21.19 21.2509 21.57 21.081 21.85 20.781C22.13 20.481 22.27 20.081 22.24 19.671L21.25 6.05099C21.22 5.64099 21.53 5.28094 21.94 5.25094C22.35 5.23094 22.71 5.53089 22.74 5.94089L23.73 19.561C23.79 20.381 23.5 21.201 22.94 21.801C22.39 22.411 21.6 22.7509 20.78 22.7509Z"/>
<path d="M9.67977 7.13069C9.61977 7.13069 9.55977 7.12067 9.49977 7.11067C9.09977 7.01067 8.84979 6.61064 8.94979 6.20064L9.98976 1.88069C10.0898 1.48069 10.4898 1.23064 10.8998 1.33064C11.2998 1.43064 11.5498 1.83068 11.4498 2.24068L10.4098 6.56074C10.3298 6.90074 10.0198 7.13069 9.67977 7.13069Z"/>
<path d="M16.3799 7.13974C16.3299 7.13974 16.2699 7.13972 16.2199 7.11972C15.8199 7.02972 15.56 6.62971 15.64 6.22971L16.5799 1.88974C16.6699 1.47974 17.0699 1.22979 17.4699 1.30979C17.8699 1.38979 18.1299 1.79968 18.0499 2.19968L17.1099 6.53977C17.0399 6.89977 16.7299 7.13974 16.3799 7.13974Z"/>
<path d="M15.7002 12.75H7.7002C7.2902 12.75 6.9502 12.41 6.9502 12C6.9502 11.59 7.2902 11.25 7.7002 11.25H15.7002C16.1102 11.25 16.4502 11.59 16.4502 12C16.4502 12.41 16.1102 12.75 15.7002 12.75Z"/>
<path d="M14.7002 16.75H6.7002C6.2902 16.75 5.9502 16.41 5.9502 16C5.9502 15.59 6.2902 15.25 6.7002 15.25H14.7002C15.1102 15.25 15.4502 15.59 15.4502 16C15.4502 16.41 15.1102 16.75 14.7002 16.75Z"/>
</g>
<defs>
<clipPath id="clip0_4418_7285">
<rect width="24" height="24" fill="white"/>
</clipPath>
</defs>
</svg>