<svg width="0" height="0" class="hidden">
  <symbol  xmlns="http://www.w3.org/2000/svg" viewBox="0 0 24 24" id="iconsax-arrow-left-02-ppudyiv3-">
    <path d="M15 20.6695C14.81 20.6695 14.62 20.5995 14.47 20.4495L7.95003 13.9295C6.89003 12.8695 6.89003 11.1295 7.95003 10.0695L14.47 3.54953C14.76 3.25953 15.24 3.25953 15.53 3.54953C15.82 3.83953 15.82 4.31953 15.53 4.60953L9.01003 11.1295C8.53003 11.6095 8.53003 12.3895 9.01003 12.8695L15.53 19.3895C15.82 19.6795 15.82 20.1595 15.53 20.4495C15.38 20.5895 15.19 20.6695 15 20.6695Z"></path>
  </symbol>
  <symbol  xmlns="http://www.w3.org/2000/svg" viewBox="0 0 24 24" id="iconsax-arrow-right-02-vebkk791-">
    <path d="M8.9101 20.6695C8.7201 20.6695 8.5301 20.5995 8.3801 20.4495C8.0901 20.1595 8.0901 19.6795 8.3801 19.3895L14.9001 12.8695C15.3801 12.3895 15.3801 11.6095 14.9001 11.1295L8.3801 4.60953C8.0901 4.31953 8.0901 3.83953 8.3801 3.54953C8.6701 3.25953 9.1501 3.25953 9.4401 3.54953L15.9601 10.0695C16.4701 10.5795 16.7601 11.2695 16.7601 11.9995C16.7601 12.7295 16.4801 13.4195 15.9601 13.9295L9.4401 20.4495C9.2901 20.5895 9.1001 20.6695 8.9101 20.6695Z"></path>
  </symbol>
  <symbol fill="#fff" xmlns="http://www.w3.org/2000/svg" viewBox="0 0 24 24" id="iconsax-diagram-dx3ywtir-">
    <g clip-path="url(#clip0_4418_8842)">
      <path d="M22 22.75H5C2.93 22.75 1.25 21.07 1.25 19V2C1.25 1.59 1.59 1.25 2 1.25C2.41 1.25 2.75 1.59 2.75 2V19C2.75 20.24 3.76 21.25 5 21.25H22C22.41 21.25 22.75 21.59 22.75 22C22.75 22.41 22.41 22.75 22 22.75Z"></path>
      <path d="M5.00007 17.7498C4.83007 17.7498 4.65007 17.6898 4.51007 17.5698C4.20007 17.2998 4.16007 16.8298 4.43007 16.5098L9.02007 11.1498C9.52007 10.5698 10.2401 10.2198 11.0001 10.1898C11.7601 10.1698 12.5101 10.4498 13.0501 10.9898L14.0001 11.9398C14.2501 12.1898 14.5701 12.3098 14.9301 12.3098C15.2801 12.2998 15.6001 12.1398 15.8301 11.8698L20.4201 6.50982C20.6901 6.19982 21.1601 6.15982 21.4801 6.42982C21.7901 6.69982 21.8301 7.16982 21.5601 7.48982L16.9701 12.8498C16.4701 13.4298 15.7501 13.7798 14.9901 13.8098C14.2201 13.8298 13.4801 13.5498 12.9401 13.0098L12.0001 12.0598C11.7501 11.8098 11.4201 11.6798 11.0701 11.6898C10.7201 11.6998 10.4001 11.8598 10.1701 12.1298L5.58007 17.4898C5.42007 17.6598 5.21007 17.7498 5.00007 17.7498Z"></path>
    </g>
    <defs>
      <clipPath id="clip0_4418_8842">
        <rect width="24" height="24" fill="white"></rect>
      </clipPath>
    </defs>
  </symbol>
  <symbol fill="#fff" xmlns="http://www.w3.org/2000/svg" viewBox="0 0 24 24" id="iconsax-home-wifi-oqqlhoqt-">
    <g clip-path="url(#clip0_4418_7422)">
      <path d="M17.5998 22.5609H6.39983C4.57983 22.5609 2.91983 21.1608 2.61983 19.3608L1.28984 11.4008C1.07984 10.1608 1.67985 8.57084 2.66985 7.78084L9.59984 2.23079C10.9398 1.15079 13.0498 1.1608 14.3998 2.2408L21.3298 7.78084C22.3098 8.57084 22.9098 10.1608 22.7098 11.4008L21.3798 19.3608C21.0798 21.1308 19.3898 22.5609 17.5998 22.5609ZM11.9898 2.94075C11.4598 2.94075 10.9298 3.10085 10.5398 3.41085L3.60982 8.96077C3.03982 9.42077 2.64982 10.4408 2.76982 11.1608L4.09984 19.1208C4.27984 20.1708 5.32983 21.0609 6.39983 21.0609H17.5998C18.6698 21.0609 19.7198 20.1708 19.8998 19.1108L21.2298 11.1508C21.3498 10.4308 20.9499 9.40076 20.3899 8.95076L13.4598 3.41085C13.0598 3.10085 12.5298 2.94075 11.9898 2.94075Z"></path>
      <path d="M14.12 15.1302C13.93 15.1302 13.7501 15.0602 13.6001 14.9202C12.6301 13.9902 11.3701 13.9902 10.3901 14.9202C10.0901 15.2102 9.62004 15.2002 9.33004 14.9002C9.04004 14.6002 9.05006 14.1302 9.35006 13.8402C10.9001 12.3502 13.0701 12.3502 14.6301 13.8402C14.9301 14.1302 14.94 14.6002 14.65 14.9002C14.52 15.0502 14.32 15.1302 14.12 15.1302Z"></path>
      <path d="M16.2399 13.0098C16.0499 13.0098 15.8599 12.9398 15.7199 12.7998C15.2499 12.3398 14.7199 11.9697 14.1599 11.6997C12.7599 11.0297 11.2299 11.0297 9.83988 11.6997C9.27988 11.9697 8.75988 12.3398 8.27988 12.7998C7.98988 13.0898 7.50988 13.0898 7.21988 12.7898C6.92988 12.4898 6.93989 12.0198 7.22989 11.7298C7.81989 11.1498 8.47989 10.6898 9.18989 10.3498C10.9999 9.47977 12.9999 9.47977 14.7999 10.3498C15.5099 10.6898 16.1699 11.1498 16.7599 11.7298C17.0599 12.0198 17.0599 12.4898 16.7699 12.7898C16.6299 12.9298 16.4399 13.0098 16.2399 13.0098Z"></path>
      <path d="M12.0001 17.5003C11.7401 17.5003 11.4901 17.4002 11.2901 17.2102C10.9001 16.8202 10.9001 16.1903 11.2901 15.8003C11.6801 15.4103 12.32 15.4103 12.71 15.8003C13.1 16.1903 13.1 16.8202 12.71 17.2102C12.51 17.4002 12.2601 17.5003 12.0001 17.5003Z"></path>
    </g>
    <defs>
      <clipPath id="clip0_4418_7422">
        <rect width="24" height="24" fill="white"></rect>
      </clipPath>
    </defs>
  </symbol>
  <symbol fill="#fff" xmlns="http://www.w3.org/2000/svg" viewBox="0 0 24 24" id="iconsax-menu-board-9vpvekfg-">
    <g clip-path="url(#clip0_4418_7285)">
      <path d="M16.3799 22.7493H3.23993C2.28993 22.7493 1.40993 22.3093 0.839932 21.5393C0.259932 20.7593 0.0899403 19.7792 0.37994 18.8492L4.58993 5.31921C4.96993 4.05921 6.12995 3.19922 7.44995 3.19922H19.7499C20.9599 3.19922 22.0499 3.91931 22.5099 5.03931C22.7599 5.61931 22.8099 6.27932 22.6599 6.92932L19.2899 20.4592C18.9699 21.8092 17.7699 22.7493 16.3799 22.7493ZM7.45993 4.70923C6.80993 4.70923 6.21993 5.13929 6.02993 5.76929L1.81994 19.2993C1.67994 19.7693 1.75993 20.2593 2.05993 20.6593C2.33993 21.0393 2.77994 21.2593 3.24994 21.2593H16.3899C17.08 21.2593 17.6799 20.7893 17.8399 20.1193L21.2099 6.57922C21.2899 6.24922 21.2699 5.91927 21.1399 5.62927C20.9 5.05927 20.3699 4.69922 19.7599 4.69922H7.45993V4.70923Z"></path>
      <path d="M20.78 22.7509H16C15.59 22.7509 15.25 22.4109 15.25 22.0009C15.25 21.5909 15.59 21.2509 16 21.2509H20.78C21.19 21.2509 21.57 21.081 21.85 20.781C22.13 20.481 22.27 20.081 22.24 19.671L21.25 6.05099C21.22 5.64099 21.53 5.28094 21.94 5.25094C22.35 5.23094 22.71 5.53089 22.74 5.94089L23.73 19.561C23.79 20.381 23.5 21.201 22.94 21.801C22.39 22.411 21.6 22.7509 20.78 22.7509Z"></path>
      <path d="M9.67977 7.13069C9.61977 7.13069 9.55977 7.12067 9.49977 7.11067C9.09977 7.01067 8.84979 6.61064 8.94979 6.20064L9.98976 1.88069C10.0898 1.48069 10.4898 1.23064 10.8998 1.33064C11.2998 1.43064 11.5498 1.83068 11.4498 2.24068L10.4098 6.56074C10.3298 6.90074 10.0198 7.13069 9.67977 7.13069Z"></path>
      <path d="M16.3799 7.13974C16.3299 7.13974 16.2699 7.13972 16.2199 7.11972C15.8199 7.02972 15.56 6.62971 15.64 6.22971L16.5799 1.88974C16.6699 1.47974 17.0699 1.22979 17.4699 1.30979C17.8699 1.38979 18.1299 1.79968 18.0499 2.19968L17.1099 6.53977C17.0399 6.89977 16.7299 7.13974 16.3799 7.13974Z"></path>
      <path d="M15.7002 12.75H7.7002C7.2902 12.75 6.9502 12.41 6.9502 12C6.9502 11.59 7.2902 11.25 7.7002 11.25H15.7002C16.1102 11.25 16.4502 11.59 16.4502 12C16.4502 12.41 16.1102 12.75 15.7002 12.75Z"></path>
      <path d="M14.7002 16.75H6.7002C6.2902 16.75 5.9502 16.41 5.9502 16C5.9502 15.59 6.2902 15.25 6.7002 15.25H14.7002C15.1102 15.25 15.4502 15.59 15.4502 16C15.4502 16.41 15.1102 16.75 14.7002 16.75Z"></path>
    </g>
    <defs>
      <clipPath id="clip0_4418_7285">
        <rect width="24" height="24" fill="white"></rect>
      </clipPath>
    </defs>
  </symbol>
  <symbol xmlns="http://www.w3.org/2000/svg" viewBox="0 0 24 24" id="iconsax-search-vaym754o-">
    <path d="M11.5 21.75C5.85 21.75 1.25 17.15 1.25 11.5C1.25 5.85 5.85 1.25 11.5 1.25C17.15 1.25 21.75 5.85 21.75 11.5C21.75 17.15 17.15 21.75 11.5 21.75ZM11.5 2.75C6.67 2.75 2.75 6.68 2.75 11.5C2.75 16.32 6.67 20.25 11.5 20.25C16.33 20.25 20.25 16.32 20.25 11.5C20.25 6.68 16.33 2.75 11.5 2.75Z"></path>
    <path d="M21.9999 22.7499C21.8099 22.7499 21.6199 22.6799 21.4699 22.5299L19.4699 20.5299C19.1799 20.2399 19.1799 19.7599 19.4699 19.4699C19.7599 19.1799 20.2399 19.1799 20.5299 19.4699L22.5299 21.4699C22.8199 21.7599 22.8199 22.2399 22.5299 22.5299C22.3799 22.6799 22.1899 22.7499 21.9999 22.7499Z"></path>
  </symbol>
  <symbol  xmlns="http://www.w3.org/2000/svg" viewBox="0 0 24 24" id="iconsax-shopping-cart-29n0a28p-">
    <g clip-path="url(#clip0_4418_7224)">
      <path d="M18.19 17.75H7.53999C6.54999 17.75 5.59999 17.33 4.92999 16.6C4.25999 15.87 3.92 14.89 4 13.9L4.83 3.94C4.86 3.63 4.74999 3.33001 4.53999 3.10001C4.32999 2.87001 4.04 2.75 3.73 2.75H2C1.59 2.75 1.25 2.41 1.25 2C1.25 1.59 1.59 1.25 2 1.25H3.74001C4.47001 1.25 5.15999 1.56 5.64999 2.09C5.91999 2.39 6.12 2.74 6.23 3.13H18.72C19.73 3.13 20.66 3.53 21.34 4.25C22.01 4.98 22.35 5.93 22.27 6.94L21.73 14.44C21.62 16.27 20.02 17.75 18.19 17.75ZM6.28 4.62L5.5 14.02C5.45 14.6 5.64 15.15 6.03 15.58C6.42 16.01 6.95999 16.24 7.53999 16.24H18.19C19.23 16.24 20.17 15.36 20.25 14.32L20.79 6.82001C20.83 6.23001 20.64 5.67001 20.25 5.26001C19.86 4.84001 19.32 4.60999 18.73 4.60999H6.28V4.62Z"></path>
      <path d="M16.25 22.75C15.15 22.75 14.25 21.85 14.25 20.75C14.25 19.65 15.15 18.75 16.25 18.75C17.35 18.75 18.25 19.65 18.25 20.75C18.25 21.85 17.35 22.75 16.25 22.75ZM16.25 20.25C15.97 20.25 15.75 20.47 15.75 20.75C15.75 21.03 15.97 21.25 16.25 21.25C16.53 21.25 16.75 21.03 16.75 20.75C16.75 20.47 16.53 20.25 16.25 20.25Z"></path>
      <path d="M8.25 22.75C7.15 22.75 6.25 21.85 6.25 20.75C6.25 19.65 7.15 18.75 8.25 18.75C9.35 18.75 10.25 19.65 10.25 20.75C10.25 21.85 9.35 22.75 8.25 22.75ZM8.25 20.25C7.97 20.25 7.75 20.47 7.75 20.75C7.75 21.03 7.97 21.25 8.25 21.25C8.53 21.25 8.75 21.03 8.75 20.75C8.75 20.47 8.53 20.25 8.25 20.25Z"></path>
      <path d="M21 8.75H9C8.59 8.75 8.25 8.41 8.25 8C8.25 7.59 8.59 7.25 9 7.25H21C21.41 7.25 21.75 7.59 21.75 8C21.75 8.41 21.41 8.75 21 8.75Z"></path>
    </g>
    <defs>
      <clipPath id="clip0_4418_7224">
        <rect width="24" height="24" fill="white"></rect>
      </clipPath>
    </defs>
  </symbol>
  <symbol xmlns="http://www.w3.org/2000/svg" viewBox="0 0 24 24" id="iconsax-user-blmc2wgt-">
    <g clip-path="url(#clip0_3111_32711)">
      <path d="M12 12.75C8.83 12.75 6.25 10.17 6.25 7C6.25 3.83 8.83 1.25 12 1.25C15.17 1.25 17.75 3.83 17.75 7C17.75 10.17 15.17 12.75 12 12.75ZM12 2.75C9.66 2.75 7.75 4.66 7.75 7C7.75 9.34 9.66 11.25 12 11.25C14.34 11.25 16.25 9.34 16.25 7C16.25 4.66 14.34 2.75 12 2.75Z"></path>
      <path d="M20.5901 22.75C20.1801 22.75 19.8401 22.41 19.8401 22C19.8401 18.55 16.3202 15.75 12.0002 15.75C7.68015 15.75 4.16016 18.55 4.16016 22C4.16016 22.41 3.82016 22.75 3.41016 22.75C3.00016 22.75 2.66016 22.41 2.66016 22C2.66016 17.73 6.85015 14.25 12.0002 14.25C17.1502 14.25 21.3401 17.73 21.3401 22C21.3401 22.41 21.0001 22.75 20.5901 22.75Z"></path>
    </g>
    <defs>
      <clipPath id="clip0_3111_32711">
        <rect width="24" height="24" fill="white"></rect>
      </clipPath>
    </defs>
  </symbol>
  <symbol fill="none" xmlns="http://www.w3.org/2000/svg" viewBox="0 0 24 24" id="instagram">
    <path d="M7.68043 1.43994C4.24002 1.43994 1.44043 4.23953 1.44043 7.67994V16.3199C1.44043 19.7603 4.24002 22.5599 7.68043 22.5599H16.3204C19.7608 22.5599 22.5604 19.7603 22.5604 16.3199V7.67994C22.5604 4.23953 19.7608 1.43994 16.3204 1.43994H7.68043ZM7.68043 2.39994H16.3204C19.2419 2.39994 21.6004 4.75843 21.6004 7.67994V16.3199C21.6004 19.2415 19.2419 21.5999 16.3204 21.5999H7.68043C4.75892 21.5999 2.40043 19.2415 2.40043 16.3199V7.67994C2.40043 4.75843 4.75892 2.39994 7.68043 2.39994ZM17.7604 5.27994C17.5058 5.27994 17.2616 5.38108 17.0816 5.56112C16.9016 5.74115 16.8004 5.98533 16.8004 6.23994C16.8004 6.49455 16.9016 6.73873 17.0816 6.91876C17.2616 7.0988 17.5058 7.19994 17.7604 7.19994C18.015 7.19994 18.2592 7.0988 18.4393 6.91876C18.6193 6.73873 18.7204 6.49455 18.7204 6.23994C18.7204 5.98533 18.6193 5.74115 18.4393 5.56112C18.2592 5.38108 18.015 5.27994 17.7604 5.27994ZM12.0004 6.71994C9.09005 6.71994 6.72043 9.08956 6.72043 11.9999C6.72043 14.9103 9.09005 17.2799 12.0004 17.2799C14.9108 17.2799 17.2804 14.9103 17.2804 11.9999C17.2804 9.08956 14.9108 6.71994 12.0004 6.71994ZM12.0004 7.67994C14.392 7.67994 16.3204 9.60839 16.3204 11.9999C16.3204 14.3915 14.392 16.3199 12.0004 16.3199C9.60887 16.3199 7.68043 14.3915 7.68043 11.9999C7.68043 9.60839 9.60887 7.67994 12.0004 7.67994Z" fill="#EDEDED"></path>
  </symbol>
  <symbol fill="none" xmlns="http://www.w3.org/2000/svg" viewBox="0 0 24 24" id="telegram">
    <path d="M21.3008 2.87348C21.067 2.88374 20.8394 2.9488 20.6342 3.03098C20.4311 3.11261 19.2617 3.61173 17.5348 4.35005C15.808 5.08836 13.5632 6.04981 11.338 7.00317C6.88753 8.9099 2.51421 10.786 2.51421 10.786L2.54609 10.7738C2.54609 10.7738 2.28214 10.862 2.01452 11.0485C1.88072 11.1417 1.73677 11.2621 1.6189 11.4375C1.50103 11.613 1.41486 11.8617 1.44734 12.1247C1.5614 13.0486 2.5189 13.3107 2.5189 13.3107L2.52265 13.3125L6.79577 14.775C6.90472 15.1385 8.09183 19.1006 8.35296 19.9397C8.49718 20.4036 8.63216 20.6712 8.77296 20.8538C8.84342 20.9451 8.91726 21.0158 8.9989 21.0675C9.03134 21.0881 9.06545 21.1035 9.09921 21.1172H9.10109C9.10523 21.1191 9.10914 21.1192 9.11327 21.121L9.10202 21.1182C9.10987 21.1213 9.11761 21.1267 9.12546 21.1294C9.1407 21.1348 9.15003 21.1346 9.16952 21.1388C9.65891 21.3097 10.0639 20.9925 10.0639 20.9925L10.0808 20.9794L12.7058 18.5447L16.9658 21.8663L17.0192 21.8907C17.7649 22.2217 18.4392 22.037 18.8126 21.7332C19.1861 21.4293 19.333 21.0375 19.333 21.0375L19.3489 20.9963L22.4792 4.68098C22.5593 4.31597 22.5707 4.00046 22.4951 3.71536C22.4196 3.43025 22.2361 3.18241 22.0058 3.04504C21.7755 2.90768 21.5346 2.86323 21.3008 2.87348ZM21.3261 3.84942C21.421 3.84502 21.4914 3.85588 21.5136 3.86911C21.5358 3.88234 21.5457 3.8806 21.567 3.96098C21.5883 4.04137 21.5999 4.21068 21.5417 4.47567L21.5398 4.4813L18.4273 20.7019C18.42 20.7182 18.3551 20.8683 18.207 20.9888C18.056 21.1117 17.8879 21.2077 17.442 21.0207L12.7836 17.3879L12.6523 17.2847L12.6495 17.2875L11.2564 16.2422L19.0855 7.0313C19.1456 6.9607 19.184 6.87419 19.1961 6.78223C19.2081 6.69026 19.1932 6.59678 19.1533 6.51309C19.1133 6.42939 19.05 6.35906 18.9709 6.3106C18.8918 6.26215 18.8004 6.23764 18.7076 6.24005C18.617 6.2424 18.529 6.27035 18.4536 6.32067L7.12484 13.8732L2.84515 12.4079C2.84515 12.4079 2.42018 12.1714 2.39984 12.0066C2.39871 11.9975 2.39369 12.0057 2.41577 11.9729C2.43786 11.94 2.49337 11.8845 2.56296 11.836C2.70215 11.739 2.86109 11.6804 2.86109 11.6804L2.87702 11.6747L2.89296 11.6682C2.89296 11.6682 7.26651 9.79199 11.7167 7.88536C13.9418 6.93204 16.1862 5.9713 17.9126 5.23317C19.6386 4.49523 20.8858 3.96406 20.9914 3.92161C21.1116 3.87347 21.2311 3.85382 21.3261 3.84942ZM16.1342 9.02067L10.197 16.006L10.1942 16.0088C10.1849 16.02 10.1762 16.0315 10.168 16.0435C10.1585 16.0565 10.1498 16.0699 10.1417 16.0838C10.1084 16.1404 10.087 16.2033 10.0789 16.2685C10.0789 16.2697 10.0789 16.271 10.0789 16.2722L9.30546 19.7504C9.2926 19.7128 9.2836 19.699 9.26984 19.6547V19.6538C9.02418 18.8645 7.90417 15.1278 7.74921 14.611L16.1342 9.02067ZM10.8673 17.1507L11.9342 17.9513L10.3667 19.4044L10.8673 17.1507Z" fill="#EDEDED"></path>
  </symbol>
  <symbol fill="none" xmlns="http://www.w3.org/2000/svg" viewBox="0 0 24 24" id="twitter">
    <g clip-path="url(#clip0_2977_6495)">
      <path d="M16.425 2.625C13.5543 2.625 11.22 4.95937 11.22 7.83C11.22 8.0025 11.2631 8.17125 11.28 8.34C7.73059 8.00062 4.59184 6.29063 2.45996 3.675C2.36059 3.54937 2.20684 3.48187 2.04559 3.49313C1.88621 3.50437 1.74371 3.59625 1.66496 3.735C1.21684 4.50563 0.959962 5.3925 0.959962 6.345C0.959962 7.49813 1.37246 8.55375 2.00996 9.42C1.88621 9.36562 1.75121 9.33562 1.63496 9.27C1.48684 9.19125 1.30871 9.195 1.16434 9.28125C1.01996 9.3675 0.931837 9.52312 0.929962 9.69V9.75C0.929962 11.5181 1.84496 13.0537 3.19496 13.995C3.17996 13.9931 3.16496 13.9987 3.14996 13.995C2.98496 13.9669 2.81809 14.025 2.70746 14.1506C2.59684 14.2762 2.56121 14.4506 2.60996 14.61C3.14621 16.2769 4.51496 17.55 6.20996 18.015C4.85996 18.8175 3.29434 19.29 1.60496 19.29C1.23934 19.29 0.888712 19.2712 0.539962 19.23C0.314962 19.2 0.0993369 19.3312 0.0243371 19.545C-0.052538 19.7587 0.0318371 19.9969 0.224962 20.115C2.39059 21.5044 4.96121 22.32 7.72496 22.32C12.2043 22.32 15.7181 20.4487 18.075 17.775C20.4318 15.1012 21.66 11.6288 21.66 8.385C21.66 8.24812 21.6487 8.115 21.645 7.98C22.5243 7.30687 23.31 6.5175 23.925 5.595C24.0468 5.41687 24.0337 5.17875 23.8931 5.01375C23.7543 4.84875 23.52 4.79813 23.325 4.89C23.0775 5.00063 22.7887 5.01187 22.53 5.1C22.8712 4.64437 23.1637 4.15313 23.34 3.6C23.4 3.41063 23.3343 3.2025 23.1787 3.07875C23.0231 2.95687 22.8056 2.94187 22.635 3.045C21.8156 3.53063 20.9081 3.87187 19.95 4.08C19.02 3.21 17.7956 2.625 16.425 2.625ZM16.425 3.585C17.6493 3.585 18.7556 4.10813 19.53 4.935C19.6462 5.055 19.8168 5.10563 19.98 5.07C20.6062 4.94625 21.2006 4.76437 21.78 4.53C21.4462 4.98 21.0337 5.36437 20.55 5.655C20.3306 5.76187 20.2275 6.015 20.3081 6.24562C20.3868 6.47437 20.6268 6.6075 20.865 6.555C21.345 6.49687 21.7725 6.30187 22.23 6.18C21.8193 6.62437 21.3693 7.02563 20.88 7.38C20.7468 7.4775 20.6737 7.635 20.685 7.8C20.6925 7.995 20.7 8.18812 20.7 8.385C20.7 11.385 19.5487 14.6419 17.355 17.13C15.1612 19.6181 11.94 21.36 7.72496 21.36C5.81059 21.36 4.00309 20.9362 2.36996 20.19C4.39496 20.0344 6.26246 19.3181 7.76996 18.135C7.92746 18.0094 7.98934 17.7994 7.92559 17.6081C7.86184 17.4169 7.68559 17.2856 7.48496 17.28C5.90246 17.2519 4.57684 16.3312 3.86996 15.03C3.89621 15.03 3.91871 15.03 3.94496 15.03C4.41934 15.03 4.88809 14.97 5.32496 14.85C5.53496 14.7881 5.67934 14.5931 5.67184 14.3737C5.66434 14.1544 5.50871 13.9669 5.29496 13.92C3.58684 13.575 2.30621 12.1838 2.00996 10.455C2.49371 10.6219 2.98871 10.7531 3.52496 10.77C3.74434 10.7831 3.94309 10.6462 4.01059 10.4381C4.07809 10.23 3.99559 10.0013 3.80996 9.885C2.66996 9.12187 1.91996 7.8225 1.91996 6.345C1.91996 5.7975 2.06246 5.295 2.24996 4.815C4.64996 7.44937 8.00996 9.19875 11.805 9.39C11.955 9.3975 12.1012 9.33562 12.1987 9.22125C12.2962 9.105 12.3337 8.95125 12.3 8.805C12.2268 8.49375 12.18 8.16375 12.18 7.83C12.18 5.47875 14.0737 3.585 16.425 3.585Z" fill="#EDEDED"></path>
    </g>
    <defs>
      <clipPath id="clip0_2977_6495">
        <rect width="24" height="24" fill="white"></rect>
      </clipPath>
    </defs>
  </symbol>
</svg>